<?xml version="1.0"?>
<svg xmlns="http://www.w3.org/2000/svg" xmlns:osb="http://www.openswatchbook.org/uri/2009/osb" version="1.1" viewBox="0 0 24 30" x="0px" y="0px">
  <path d="m2 1c-1.0907028 0-2 0.90929723-2 2v14c0 1.0907028 0.90929723 2 2 2h7.5a0.5 0.5 45 0 1 0.5 0.5v1a0.5 0.5 135 0 1-0.5 0.5h-1.5c-0.55228475 0-1 0.44771525-1 1s0.44771525 1 1 1h8c0.55228475 0 1-0.44771525 1-1s-0.44771525-1-1-1h-1.5a0.5 0.5 45 0 1-0.5-0.5v-1a0.5 0.5 135 0 1 0.5-0.5h7.5c1.0907028 0 2-0.90929723 2-2v-14c0-1.0907028-0.90929723-2-2-2zm0.5 2h19a0.5 0.5 45 0 1 0.5 0.5v11a0.5 0.5 135 0 1-0.5 0.5h-19a0.5 0.5 45 0 1-0.5-0.5v-11a0.5 0.5 135 0 1 0.5-0.5zm9.5 13c0.55228475 0 1 0.44771525 1 1s-0.44771525 1-1 1-1-0.44771525-1-1 0.44771525-1 1-1z" style="color-rendering:auto;color:#000000;dominant-baseline:auto;font-feature-settings:normal;font-variant-alternates:normal;font-variant-caps:normal;font-variant-east-asian:normal;font-variant-ligatures:normal;font-variant-numeric:normal;font-variant-position:normal;font-variation-settings:normal;image-rendering:auto;inline-size:0;isolation:auto;mix-blend-mode:normal;paint-order:fill markers stroke;shape-margin:0;shape-padding:0;shape-rendering:auto;solid-color:#000000;text-decoration-color:#000000;text-decoration-line:none;text-decoration-style:solid;text-indent:0;text-orientation:mixed;text-transform:none;white-space:normal;" fill="#000000" stop-color="#000000"/>
</svg>
