<?xml version="1.0"?>
<svg xmlns:dc="http://purl.org/dc/elements/1.1/" xmlns:cc="http://creativecommons.org/ns#" xmlns:rdf="http://www.w3.org/1999/02/22-rdf-syntax-ns#" xmlns:svg="http://www.w3.org/2000/svg" xmlns="http://www.w3.org/2000/svg" xmlns:sodipodi="http://sodipodi.sourceforge.net/DTD/sodipodi-0.dtd" xmlns:inkscape="http://www.inkscape.org/namespaces/inkscape" version="1.1" x="0px" y="0px" viewBox="0 0 100 125">
  <g transform="translate(0,-952.36218)">
    <path style="text-indent:0;text-transform:none;direction:ltr;block-progression:tb;baseline-shift:baseline;color:#000000;enable-background:accumulate;" d="m 41.999998,974.36218 c -12.7539,0 -21.7427,11.139 -21.0938,22.5 -7.4018,1.844 -12.9062,8.54142 -12.9062,16.50002 0,9.377 7.6231,17 17,17 l 49.000004,0 c 10.606,0 18,-7.1236 18,-16 0,-7.1804 -4.8829,-14.1542 -12.0938,-15.78122 -0.2459,-5.8829 -3.0439,-10.2764 -6.9062,-12.5938 -3.7875,-2.2725 -8.4651,-2.5489 -12.5938,-0.8125 -3.3101,-5.9681 -9.831004,-10.8125 -18.406204,-10.8125 z m 0,2 c 8.1575,0 14.250904,4.7517 17.093804,10.4375 a 1.0001,1.0001 0 0 0 1.3437,0.4375 c 3.687,-1.8435 8.1039,-1.6064 11.5625,0.4688 3.4586,2.0751 6,5.9618 6,11.6562 a 1.0001,1.0001 0 0 0 0.8438,0.96882 c 6.5514,1.0992 11.1562,7.5351 11.1562,14.0312 0,7.7829 -6.2686,14 -16,14 l -49.000004,0 c -8.2961,0 -15,-6.7039 -15,-15 0,-7.2998 5.2042,-13.39742 12.0938,-14.75002 a 1.0001,1.0001 0 0 0 0.8124,-1.0937 c -1.065,-10.4882 7.2075,-21.1563 19.0938,-21.1563 z" fill="#000000" fill-opacity="1" stroke="none" marker="none" visibility="visible" display="inline" overflow="visible"/>
  </g>
</svg>
