<?xml version="1.0"?>
<svg xmlns="http://www.w3.org/2000/svg" data-name="Capa 1" viewBox="0 0 105 131.25" x="0px" y="0px">
  <title>Mesa de trabajo 1</title>
  <path d="M65.73,91V66a4.29,4.29,0,0,0-4.29-4.29H43.65A4.29,4.29,0,0,0,39.36,66V91a4.29,4.29,0,0,1-4.29,4.29H17.25A4.29,4.29,0,0,1,13,91V70.88a4.29,4.29,0,0,1,1.26-3L51,31.08a2.15,2.15,0,0,1,3,0L90.78,67.84a4.29,4.29,0,0,1,1.26,3V91a4.29,4.29,0,0,1-4.29,4.29H70A4.29,4.29,0,0,1,65.73,91ZM7.66,61.67a4.26,4.26,0,0,0,3,1.26A4.22,4.22,0,0,0,13,62.27a3.93,3.93,0,0,0,.76-.6L51,24.41a2.15,2.15,0,0,1,3,0L91.28,61.67a3.93,3.93,0,0,0,.76.6,4.22,4.22,0,0,0,2.27.66,4.26,4.26,0,0,0,3-1.26l1.4-1.4a4.29,4.29,0,0,0,0-6.07L55.53,11a4.27,4.27,0,0,0-6.06,0L28.88,31.58V17.74a4.29,4.29,0,0,0-4.29-4.28H17.3A4.29,4.29,0,0,0,13,17.74V47.45L6.26,54.2a4.29,4.29,0,0,0,0,6.07Z"/>
</svg>
