<?xml version="1.0"?>
<svg xmlns="http://www.w3.org/2000/svg" xmlns:xlink="http://www.w3.org/1999/xlink" viewBox="0 0 89 115" version="1.1" x="0px" y="0px">
  <title>banking money deposit  copy</title>
  <desc>Created with Sketch.</desc>
  <g stroke="none" stroke-width="1" fill="none" fill-rule="evenodd">
    <g transform="translate(-4785.000000, -1642.000000)" fill="#000000" fill-rule="nonzero">
      <path d="M4785,1682.90621 C4793.05922,1689.52409 4811.65253,1693.02753 4829.40781,1693.02753 C4847.16329,1693.02753 4865.7566,1689.52389 4873.81562,1682.90621 L4873.81562,1697.96112 C4873.81562,1704.23216 4854.82508,1711.24681 4829.40781,1711.24681 C4803.99094,1711.24681 4785,1704.23216 4785,1697.96112 L4785,1682.90621 Z M4829.40781,1688.76083 C4803.99094,1688.76083 4785,1681.74617 4785,1675.47329 L4785,1662.71841 C4793.05922,1669.33649 4811.65253,1672.83993 4829.40781,1672.83993 C4847.16329,1672.83993 4865.7566,1669.33649 4873.81562,1662.71841 L4873.81562,1675.47329 C4873.81562,1681.74617 4854.82508,1688.76083 4829.40781,1688.76083 Z M4829.40781,1642 C4854.82508,1642 4873.81562,1649.01466 4873.81562,1655.28549 C4873.81562,1661.55857 4854.82508,1668.57302 4829.40781,1668.57302 C4803.99094,1668.57302 4785,1661.55857 4785,1655.28549 C4785,1649.01466 4803.99094,1642 4829.40781,1642 Z M4829.40781,1733.73443 C4803.99094,1733.73443 4785,1726.71978 4785,1720.44874 L4785,1705.39281 C4793.05922,1712.00987 4811.65253,1715.51331 4829.40781,1715.51331 C4847.16329,1715.51331 4865.7566,1712.00967 4873.81562,1705.39281 L4873.81562,1720.44874 C4873.81562,1726.71978 4854.82508,1733.73443 4829.40781,1733.73443 Z"/>
    </g>
  </g>
</svg>
