<?xml version="1.0"?>
<svg xmlns="http://www.w3.org/2000/svg" data-name="Layer 1" viewBox="0 0 100 125" x="0px" y="0px">
  <title>30</title>
  <path d="M82.125,5.59926a44.9815,44.9815,0,0,1-.62207,63.62988,1.99989,1.99989,0,1,1-2.79883-2.85742A40.9811,40.9811,0,0,0,79.26953,8.401,2.00022,2.00022,0,0,1,82.125,5.59926Zm-64.25,0a44.9815,44.9815,0,0,0,.62207,63.62988,1.99989,1.99989,0,1,0,2.79883-2.85742A40.9811,40.9811,0,0,1,20.73047,8.401,2.00022,2.00022,0,0,0,17.875,5.59926Zm8.68066,8.69091a32.64271,32.64271,0,0,0,.63379,46.26075,2.00037,2.00037,0,0,0,2.78516-2.87208,28.6416,28.6416,0,0,1-.55371-40.59765,2,2,0,1,0-2.86524-2.791Zm46.88868,0a2,2,0,1,0-2.86524,2.791,28.6416,28.6416,0,0,1-.55371,40.59765,2.00037,2.00037,0,0,0,2.78516,2.87208,32.64271,32.64271,0,0,0,.63379-46.26075ZM38.03809,22.90736a1.99967,1.99967,0,0,0-2.82813.05713,20.436,20.436,0,0,0,.64063,28.94092,2.00022,2.00022,0,0,0,2.76953-2.88672A16.43586,16.43586,0,0,1,38.09473,25.735,2,2,0,0,0,38.03809,22.90736Zm23.2832,28.93945a2.00072,2.00072,0,0,0,2.82812.0586A20.436,20.436,0,0,0,64.79,22.96449,1.99985,1.99985,0,1,0,61.90527,25.735a16.43586,16.43586,0,0,1-.52539,23.28369A2.00057,2.00057,0,0,0,61.32129,51.84681ZM40,89.00013a3,3,0,0,0,0,6H60a3,3,0,1,0,0-6H53V45.08271a8,8,0,1,0-6,0V89.00013Z"/>
</svg>
