<?xml version="1.0"?>
<svg xmlns="http://www.w3.org/2000/svg" xmlns:xlink="http://www.w3.org/1999/xlink" xml:space="preserve" version="1.1" style="shape-rendering:geometricPrecision;text-rendering:geometricPrecision;image-rendering:optimizeQuality;" viewBox="0 0 1.768 2.08125" x="0px" y="0px" fill-rule="evenodd" clip-rule="evenodd">
  <g fill="#000000">
    <path d="M0.017 0.285l0.277 -0.277c0.005,-0.005 0.012,-0.008 0.02,-0.008l1.14 0c0.008,0 0.015,0.003 0.021,0.008l0.277 0.277 -1.735 0zm1.723 0.981l-1.711 0c-0.016,0 -0.029,0.013 -0.029,0.029l0 0.342c0,0.016 0.013,0.028 0.029,0.028l0.827 0 0.057 0 0.827 0c0.015,0 0.028,-0.012 0.028,-0.028l0 -0.342c0,-0.016 -0.013,-0.029 -0.028,-0.029zm-1.711 -0.924l1.711 0c0.015,0 0.028,0.013 0.028,0.029l0 0.342c0,0.016 -0.013,0.029 -0.028,0.029l-1.711 0c-0.016,0 -0.029,-0.013 -0.029,-0.029l0 -0.342c0,-0.016 0.013,-0.029 0.029,-0.029zm0.192 0.229c-0.015,0 -0.028,-0.013 -0.028,-0.029 0,-0.015 0.013,-0.028 0.028,-0.028l0.628 0c0.015,0 0.028,0.013 0.028,0.028 0,0.016 -0.013,0.029 -0.028,0.029l-0.628 0zm1.098 -0.072c0.023,0 0.043,0.019 0.043,0.043 0,0.024 -0.02,0.043 -0.043,0.043 -0.024,0 -0.043,-0.019 -0.043,-0.043 0,-0.024 0.019,-0.043 0.043,-0.043zm0.214 0c0.023,0 0.042,0.019 0.042,0.043 0,0.024 -0.019,0.043 -0.042,0.043 -0.024,0 -0.043,-0.019 -0.043,-0.043 0,-0.024 0.019,-0.043 0.043,-0.043zm-0.428 0c0.024,0 0.043,0.019 0.043,0.043 0,0.024 -0.019,0.043 -0.043,0.043 -0.024,0 -0.043,-0.019 -0.043,-0.043 0,-0.024 0.019,-0.043 0.043,-0.043zm-1.105 0.339l0 0.343c0,0.015 0.013,0.028 0.029,0.028l1.711 0c0.015,0 0.028,-0.013 0.028,-0.028l0 -0.343c0,-0.015 -0.013,-0.028 -0.028,-0.028l-1.711 0c-0.016,0 -0.029,0.013 -0.029,0.028zm0.221 0.2c-0.015,0 -0.028,-0.012 -0.028,-0.028 0,-0.016 0.013,-0.029 0.028,-0.029l0.628 0c0.015,0 0.028,0.013 0.028,0.029 0,0.016 -0.013,0.028 -0.028,0.028l-0.628 0zm0.841 -0.028c0,-0.024 0.019,-0.043 0.043,-0.043 0.024,0 0.043,0.019 0.043,0.043 0,0.023 -0.019,0.042 -0.043,0.042 -0.024,0 -0.043,-0.019 -0.043,-0.042zm0.214 0c0,-0.024 0.019,-0.043 0.043,-0.043 0.023,0 0.043,0.019 0.043,0.043 0,0.023 -0.02,0.042 -0.043,0.042 -0.024,0 -0.043,-0.019 -0.043,-0.042zm0.214 0c0,-0.024 0.019,-0.043 0.043,-0.043 0.023,0 0.042,0.019 0.042,0.043 0,0.023 -0.019,0.042 -0.042,0.042 -0.024,0 -0.043,-0.019 -0.043,-0.042zm-1.297 0.456c0,-0.015 0.013,-0.028 0.028,-0.028l0.628 0c0.015,0 0.028,0.013 0.028,0.028 0,0.016 -0.013,0.029 -0.028,0.029l-0.628 0c-0.015,0 -0.028,-0.013 -0.028,-0.029zm1.083 0c0,-0.024 0.019,-0.043 0.043,-0.043 0.023,0 0.043,0.019 0.043,0.043 0,0.023 -0.02,0.043 -0.043,0.043 -0.024,0 -0.043,-0.02 -0.043,-0.043zm0.214 0c0,-0.024 0.019,-0.043 0.043,-0.043 0.023,0 0.042,0.019 0.042,0.043 0,0.023 -0.019,0.043 -0.042,0.043 -0.024,0 -0.043,-0.02 -0.043,-0.043zm-0.428 0c0,-0.024 0.019,-0.043 0.043,-0.043 0.024,0 0.043,0.019 0.043,0.043 0,0.023 -0.019,0.043 -0.043,0.043 -0.024,0 -0.043,-0.02 -0.043,-0.043z"/>
  </g>
</svg>
